<svg width="74" height="75" viewBox="0 0 74 75" fill="none" xmlns="http://www.w3.org/2000/svg">
<path opacity="0.21" fill-rule="evenodd" clip-rule="evenodd" d="M0.290039 37.4456V46.0289C0.290039 61.6046 12.9167 74.2312 28.4924 74.2312H37.0757H45.659C61.2348 74.2312 73.8614 61.6046 73.8614 46.0289V37.4456V28.8623C73.8614 13.2865 61.2347 0.659912 45.659 0.659912H37.0757H28.4924C12.9167 0.659912 0.290039 13.2866 0.290039 28.8623V37.4456Z" fill="#FEC53D"/>
<path fill-rule="evenodd" clip-rule="evenodd" d="M18.6829 30.4764L34.5013 39.6092C34.6716 39.7075 34.8502 39.7786 35.032 39.8237V57.5363L19.811 48.5284C19.1118 48.1146 18.6829 47.3624 18.6829 46.5498V30.4764ZM55.4685 30.2336V46.5498C55.4685 47.3624 55.0396 48.1146 54.3403 48.5284L39.1193 57.5363V39.6685C39.1564 39.65 39.1931 39.6302 39.2295 39.6092L55.4685 30.2336Z" fill="#FEC53D"/>
<path opacity="0.499209" fill-rule="evenodd" clip-rule="evenodd" d="M19.1799 26.0437C19.3731 25.7997 19.617 25.5935 19.9014 25.4421L35.9951 16.8702C36.6707 16.5104 37.4811 16.5104 38.1567 16.8702L54.2504 25.4421C54.4696 25.5588 54.6647 25.7081 54.8312 25.8822L37.1861 36.0695C37.0701 36.1365 36.9631 36.2132 36.8656 36.2979C36.7681 36.2132 36.6612 36.1365 36.5451 36.0695L19.1799 26.0437Z" fill="#FEC53D"/>
</svg>
