<svg width="74" height="75" viewBox="0 0 74 75" fill="none" xmlns="http://www.w3.org/2000/svg">
<path opacity="0.21" fill-rule="evenodd" clip-rule="evenodd" d="M0.38208 37.4456V46.0289C0.38208 61.6046 13.0087 74.2312 28.5844 74.2312H37.1677H45.7511C61.3268 74.2312 73.9534 61.6046 73.9534 46.0289V37.4456V28.8623C73.9534 13.2865 61.3268 0.659912 45.7511 0.659912H37.1677H28.5844C13.0087 0.659912 0.38208 13.2866 0.38208 28.8623V37.4456Z" fill="#4AD991"/>
<path d="M23.816 50.7973H52.4271C53.4805 50.7973 54.3345 51.6513 54.3345 52.7047C54.3345 53.7581 53.4805 54.6121 52.4271 54.6121H21.9086C20.8552 54.6121 20.0012 53.7581 20.0012 52.7047V22.1862C20.0012 21.1328 20.8552 20.2788 21.9086 20.2788C22.9621 20.2788 23.816 21.1328 23.816 22.1862V50.7973Z" fill="#4AD991"/>
<path opacity="0.5" d="M30.9298 42.5648C30.2093 43.3333 29.0022 43.3722 28.2337 42.6517C27.4652 41.9312 27.4263 40.7242 28.1467 39.9557L35.2995 32.326C35.9963 31.5828 37.1542 31.5183 37.9292 32.1796L43.5746 36.9971L50.93 27.6802C51.5828 26.8533 52.7822 26.7122 53.609 27.365C54.4359 28.0177 54.577 29.2172 53.9242 30.044L45.3409 40.9162C44.6705 41.7654 43.4287 41.8875 42.6057 41.1852L36.8376 36.2631L30.9298 42.5648Z" fill="#4AD991"/>
</svg>
