<svg width="75" height="75" viewBox="0 0 75 75" fill="none" xmlns="http://www.w3.org/2000/svg">
<path opacity="0.21" fill-rule="evenodd" clip-rule="evenodd" d="M0.989258 37.4456V46.0289C0.989258 61.6046 13.6159 74.2312 29.1916 74.2312H37.7749H46.3583C61.934 74.2312 74.5606 61.6046 74.5606 46.0289V37.4456V28.8623C74.5606 13.2865 61.934 0.659912 46.3582 0.659912H37.7749H29.1916C13.6159 0.659912 0.989258 13.2866 0.989258 28.8623V37.4456Z" fill="#8280FF"/>
<path opacity="0.587821" fill-rule="evenodd" clip-rule="evenodd" d="M26.3306 29.2709C26.3306 32.8826 29.2585 35.8106 32.8702 35.8106C36.482 35.8106 39.4099 32.8826 39.4099 29.2709C39.4099 25.6591 36.482 22.7312 32.8702 22.7312C29.2585 22.7312 26.3306 25.6591 26.3306 29.2709ZM42.6796 35.8105C42.6796 38.5194 44.8755 40.7153 47.5843 40.7153C50.2932 40.7153 52.4891 38.5194 52.4891 35.8105C52.4891 33.1017 50.2932 30.9058 47.5843 30.9058C44.8755 30.9058 42.6796 33.1017 42.6796 35.8105Z" fill="#8280FF"/>
<path fill-rule="evenodd" clip-rule="evenodd" d="M32.8428 39.0803C25.1236 39.0803 18.7905 43.0475 18.1568 50.8504C18.1223 51.2755 18.9351 52.1597 19.3452 52.1597H46.3527C47.5809 52.1597 47.6 51.1713 47.5809 50.8517C47.1018 42.8295 40.6706 39.0803 32.8428 39.0803ZM56.5044 52.1597H50.2003C50.2003 48.4796 48.9844 45.0835 46.9324 42.3512C52.5018 42.4121 57.0492 45.2279 57.3915 51.1787C57.4052 51.4184 57.3915 52.1597 56.5044 52.1597Z" fill="#8280FF"/>
</svg>
