<svg width="248" height="45" viewBox="0 0 248 45" fill="none" xmlns="http://www.w3.org/2000/svg">
<rect x="0.570801" y="0.412598" width="4.2511" height="43.928" rx="2.12555" fill="#4490D1"/>
<rect x="13.3242" y="0.412598" width="4.2511" height="43.928" rx="2.12555" fill="#5F8ED2"/>
<rect x="26.0774" y="0.412598" width="4.2511" height="43.928" rx="2.12555" fill="#6C91E2"/>
<rect x="38.8306" y="0.412598" width="4.2511" height="43.928" rx="2.12555" fill="#6B89E1"/>
<rect x="51.584" y="0.412598" width="4.2511" height="43.928" rx="2.12555" fill="#788EDE"/>
<rect x="64.3372" y="0.412598" width="4.2511" height="43.928" rx="2.12555" fill="#8497DB"/>
<rect x="77.0906" y="0.412598" width="4.2511" height="43.928" rx="2.12555" fill="#9B9BD1"/>
<rect x="89.8438" y="0.412598" width="4.2511" height="43.928" rx="2.12555" fill="#A79DDC"/>
<rect x="102.597" y="0.412598" width="4.2511" height="43.928" rx="2.12555" fill="#9E8BDA"/>
<rect x="115.35" y="0.412598" width="4.2511" height="43.928" rx="2.12555" fill="#B49EE6"/>
<rect x="128.104" y="0.412598" width="4.2511" height="43.928" rx="2.12555" fill="#B49EE6"/>
<rect x="140.857" y="0.412598" width="4.2511" height="43.928" rx="2.12555" fill="#B49EE6"/>
<rect x="153.61" y="0.412598" width="4.2511" height="43.928" rx="2.12555" fill="#B49EE6"/>
<rect x="166.364" y="0.412598" width="4.2511" height="43.928" rx="2.12555" fill="#B49EE6"/>
<rect x="179.117" y="0.412598" width="4.2511" height="43.928" rx="2.12555" fill="#B49EE6"/>
<rect x="191.87" y="0.412598" width="4.2511" height="43.928" rx="2.12555" fill="#B49EE6"/>
<rect x="204.623" y="0.412598" width="4.2511" height="43.928" rx="2.12555" fill="#B49EE6"/>
<rect x="217.377" y="0.412598" width="4.2511" height="43.928" rx="2.12555" fill="#B49EE6"/>
<rect x="230.13" y="0.412598" width="4.2511" height="43.928" rx="2.12555" fill="#3E3E3E" fill-opacity="0.12"/>
<rect x="242.883" y="0.412598" width="4.2511" height="43.928" rx="2.12555" fill="#3E3E3E" fill-opacity="0.12"/>
</svg>
