<svg width="40" height="40" viewBox="0 0 40 40" fill="none" xmlns="http://www.w3.org/2000/svg">
<path d="M29.7953 28.2044L25.3431 23.7504C26.678 22.0108 27.3013 19.8286 27.0864 17.6464C26.8715 15.4643 25.8347 13.4455 24.1861 11.9997C22.5376 10.5539 20.4008 9.78935 18.2092 9.86107C16.0177 9.9328 13.9355 10.8355 12.385 12.3859C10.8345 13.9364 9.93182 16.0187 9.86009 18.2102C9.78837 20.4018 10.553 22.5385 11.9987 24.1871C13.4445 25.8356 15.4633 26.8725 17.6455 27.0874C19.8276 27.3023 22.0098 26.679 23.7494 25.3441L28.2053 29.801C28.31 29.9056 28.4342 29.9886 28.5709 30.0453C28.7077 30.1019 28.8542 30.1311 29.0022 30.1311C29.1502 30.1311 29.2967 30.1019 29.4335 30.0453C29.5702 29.9886 29.6944 29.9056 29.7991 29.801C29.9037 29.6963 29.9867 29.5721 30.0434 29.4354C30.1 29.2986 30.1291 29.1521 30.1291 29.0041C30.1291 28.8561 30.1 28.7096 30.0434 28.5728C29.9867 28.4361 29.9037 28.3119 29.7991 28.2072L29.7953 28.2044ZM12.1244 18.5004C12.1244 17.2395 12.4983 16.007 13.1988 14.9586C13.8993 13.9102 14.8949 13.0931 16.0598 12.6106C17.2247 12.1281 18.5065 12.0019 19.7431 12.2479C20.9797 12.4938 22.1156 13.101 23.0072 13.9926C23.8987 14.8841 24.5059 16.02 24.7519 17.2567C24.9979 18.4933 24.8716 19.7751 24.3891 20.94C23.9066 22.1048 23.0895 23.1005 22.0411 23.801C20.9928 24.5015 19.7602 24.8754 18.4994 24.8754C16.8092 24.8736 15.1887 24.2014 13.9935 23.0062C12.7983 21.8111 12.1261 20.1906 12.1244 18.5004Z" fill="#3A5776"/>
</svg>
