<svg width="20" height="20" viewBox="0 0 20 20" fill="none" xmlns="http://www.w3.org/2000/svg">
<g clip-path="url(#clip0_2301_955)">
<path d="M13.233 6.25C12.6665 2.76172 11.3302 0.3125 9.77508 0.3125C8.21999 0.3125 6.88371 2.76172 6.31716 6.25H13.233ZM6.02411 10C6.02411 10.8672 6.071 11.6992 6.15305 12.5H13.3932C13.4753 11.6992 13.5221 10.8672 13.5221 10C13.5221 9.13281 13.4753 8.30078 13.3932 7.5H6.15305C6.071 8.30078 6.02411 9.13281 6.02411 10ZM18.711 6.25C17.5935 3.59766 15.3312 1.54688 12.5375 0.71875C13.4909 2.03906 14.1473 4.02734 14.4911 6.25H18.711ZM7.00874 0.71875C4.21896 1.54688 1.95275 3.59766 0.839184 6.25H5.05902C5.39895 4.02734 6.05537 2.03906 7.00874 0.71875ZM19.1291 7.5H14.6474C14.7295 8.32031 14.7764 9.16016 14.7764 10C14.7764 10.8398 14.7295 11.6797 14.6474 12.5H19.1251C19.34 11.6992 19.4612 10.8672 19.4612 10C19.4612 9.13281 19.34 8.30078 19.1291 7.5ZM4.77379 10C4.77379 9.16016 4.82068 8.32031 4.90273 7.5H0.421107C0.210115 8.30078 0.085083 9.13281 0.085083 10C0.085083 10.8672 0.210115 11.6992 0.421107 12.5H4.89882C4.82068 11.6797 4.77379 10.8398 4.77379 10ZM6.31716 13.75C6.88371 17.2383 8.21999 19.6875 9.77508 19.6875C11.3302 19.6875 12.6665 17.2383 13.233 13.75H6.31716ZM12.5414 19.2812C15.3312 18.4531 17.5974 16.4023 18.7149 13.75H14.495C14.1512 15.9727 13.4948 17.9609 12.5414 19.2812ZM0.839184 13.75C1.95666 16.4023 4.21896 18.4531 7.01265 19.2812C6.05928 17.9609 5.40286 15.9727 5.05902 13.75H0.839184Z" fill="white"/>
</g>
<defs>
<clipPath id="clip0_2301_955">
<rect width="19.38" height="20" fill="white" transform="translate(0.085083)"/>
</clipPath>
</defs>
</svg>
