<svg width="25" height="24" viewBox="0 0 25 24" fill="none" xmlns="http://www.w3.org/2000/svg">
<path d="M21.8804 20.2044L17.4282 15.7504C18.7631 14.0108 19.3864 11.8286 19.1715 9.64643C18.9566 7.46426 17.9197 5.44552 16.2712 3.99972C14.6226 2.55393 12.4859 1.78935 10.2943 1.86107C8.10276 1.9328 6.02055 2.83546 4.47006 4.38595C2.91956 5.93644 2.0169 8.01865 1.94518 10.2102C1.87345 12.4018 2.63804 14.5385 4.08383 16.1871C5.52962 17.8356 7.54836 18.8725 9.73054 19.0874C11.9127 19.3023 14.0949 18.679 15.8345 17.3441L20.2904 21.801C20.3951 21.9056 20.5193 21.9886 20.656 22.0453C20.7927 22.1019 20.9393 22.1311 21.0873 22.1311C21.2353 22.1311 21.3818 22.1019 21.5185 22.0453C21.6553 21.9886 21.7795 21.9056 21.8842 21.801C21.9888 21.6963 22.0718 21.5721 22.1284 21.4354C22.1851 21.2986 22.2142 21.1521 22.2142 21.0041C22.2142 20.8561 22.1851 20.7096 22.1284 20.5728C22.0718 20.4361 21.9888 20.3119 21.8842 20.2072L21.8804 20.2044ZM4.20947 10.5004C4.20947 9.2395 4.58335 8.00696 5.28385 6.9586C5.98434 5.91024 6.97998 5.09314 8.14486 4.61063C9.30974 4.12812 10.5915 4.00187 11.8282 4.24785C13.0648 4.49383 14.2007 5.10099 15.0923 5.99255C15.9838 6.88411 16.591 8.02003 16.837 9.25666C17.083 10.4933 16.9567 11.7751 16.4742 12.94C15.9917 14.1048 15.1746 15.1005 14.1262 15.801C13.0779 16.5015 11.8453 16.8754 10.5845 16.8754C8.89424 16.8736 7.27375 16.2014 6.07858 15.0062C4.88341 13.8111 4.2112 12.1906 4.20947 10.5004Z" fill="white"/>
</svg>
