<svg width="32" height="33" viewBox="0 0 32 33" fill="none" xmlns="http://www.w3.org/2000/svg">
<path d="M32 16.5701C32 7.73099 24.8366 0.56543 16 0.56543C7.16345 0.56543 0 7.73099 0 16.5701C0 25.4093 7.16345 32.5749 16 32.5749C24.8366 32.5749 32 25.4093 32 16.5701Z" fill="#FF0209"/>
<path d="M22.7921 23.6586C22.3154 23.7104 21.8274 23.7194 21.3597 23.7182C17.7113 23.7149 14.0629 23.7115 10.4157 23.7092C9.26777 23.7092 8.01755 23.6721 7.13047 22.9422C6.13096 22.1179 5.92297 20.6885 5.84202 19.3951C5.72959 17.6227 5.72059 15.8446 5.81279 14.0711C5.86338 13.0971 5.9522 12.0996 6.37156 11.2179C6.67288 10.5847 7.17544 10.0156 7.81855 9.71649C8.56621 9.36897 9.34873 9.43083 10.1537 9.4297C12.0808 9.42745 14.0079 9.42633 15.9349 9.42408C17.9384 9.42183 19.9431 9.42071 21.9466 9.41846C22.8933 9.41846 23.9096 9.43758 24.682 9.98527C25.6793 10.6915 25.9502 12.0355 26.075 13.2512C26.3055 15.4904 26.3089 17.7531 26.084 19.9923C25.9907 20.9156 25.8356 21.8918 25.2273 22.5925C24.6247 23.2875 23.7309 23.5552 22.7932 23.6575L22.7921 23.6586Z" fill="white"/>
<path d="M19.2623 16.5702L13.8252 13.4302V19.7102L19.2623 16.5702Z" fill="#FF0209"/>
</svg>
