<svg width="32" height="33" viewBox="0 0 32 33" fill="none" xmlns="http://www.w3.org/2000/svg">
<path d="M16.0364 0.56543H15.9636C7.14713 0.56543 0 7.71466 0 16.5337V16.6066C0 25.4256 7.14713 32.5748 15.9636 32.5748H16.0364C24.8529 32.5748 32 25.4256 32 16.6066V16.5337C32 7.71466 24.8529 0.56543 16.0364 0.56543Z" fill="#00E510"/>
<path d="M19.1189 21.2516C15.0235 21.2516 11.6916 17.9175 11.6904 13.8209C11.6916 12.7824 12.5369 11.938 13.5728 11.938C13.6793 11.938 13.7847 11.947 13.8856 11.9649C14.1075 12.0019 14.3183 12.077 14.5123 12.1903C14.5403 12.2071 14.5594 12.234 14.5638 12.2655L14.9966 14.9939C15.0022 15.0264 14.9921 15.0578 14.9708 15.0814C14.732 15.3461 14.4271 15.5367 14.0874 15.632L13.9237 15.678L13.9853 15.8361C14.5437 17.2581 15.6805 18.3941 17.1032 18.9549L17.2613 19.0177L17.3072 18.8539C17.4025 18.5141 17.5931 18.2091 17.8577 17.9702C17.8767 17.9523 17.9025 17.9433 17.9283 17.9433C17.9339 17.9433 17.9395 17.9433 17.9463 17.9444L20.6739 18.3773C20.7064 18.3829 20.7334 18.4009 20.7502 18.4289C20.8623 18.6229 20.9374 18.8349 20.9755 19.0569C20.9935 19.1556 21.0013 19.2599 21.0013 19.3687C21.0013 20.406 20.1571 21.2505 19.1189 21.2516Z" fill="#FDFDFD"/>
<path d="M26.3809 15.6715C26.16 13.1751 25.0165 10.8593 23.161 9.15137C21.2944 7.43332 18.8727 6.48682 16.3401 6.48682C10.7817 6.48682 6.25909 11.0107 6.25909 16.5709C6.25909 18.4369 6.77367 20.2548 7.74792 21.8383L5.5752 26.6493L12.5317 25.908C13.7414 26.4037 15.0217 26.6549 16.339 26.6549C16.6854 26.6549 17.0408 26.6369 17.3974 26.5999C17.7113 26.5663 18.0286 26.517 18.3402 26.4542C22.9951 25.5133 26.3932 21.3807 26.4201 16.6247V16.5709C26.4201 16.2681 26.4066 15.9653 26.3797 15.6715H26.3809ZM12.7997 23.7963L8.95089 24.2068L10.1 21.66L9.87019 21.3516C9.85338 21.3291 9.83656 21.3067 9.81751 21.2809C8.81971 19.9027 8.29278 18.2743 8.29278 16.572C8.29278 12.1333 11.9028 8.52224 16.3401 8.52224C20.4972 8.52224 24.0209 11.7666 24.3606 15.9081C24.3785 16.1301 24.3886 16.3533 24.3886 16.5731C24.3886 16.6359 24.3875 16.6976 24.3864 16.7637C24.3012 20.4768 21.708 23.6304 18.0801 24.4333C17.8032 24.495 17.5196 24.5421 17.237 24.5724C16.9433 24.606 16.6417 24.6228 16.3424 24.6228C15.2762 24.6228 14.2403 24.4165 13.2616 24.0083C13.1528 23.9645 13.0463 23.9174 12.9465 23.8692L12.8008 23.7986L12.7997 23.7963Z" fill="#FDFDFD"/>
</svg>
